<mxfile host="app.diagrams.net" modified="2021-06-11T01:20:26.199Z" agent="5.0 (Windows NT 10.0; Win64; x64) AppleWebKit/537.36 (KHTML, like Gecko) Chrome/91.0.4472.77 Safari/537.36 Edg/91.0.864.41" etag="eNmX4xGj3kLy9PjYgLfQ" version="14.7.6" type="github">
  <diagram id="yinXIE5AYlkKIpmGymxK" name="Page-1">
    <mxGraphModel dx="1422" dy="833" grid="1" gridSize="10" guides="1" tooltips="1" connect="1" arrows="1" fold="1" page="1" pageScale="1" pageWidth="827" pageHeight="1169" math="0" shadow="0">
      <root>
        <mxCell id="0" />
        <mxCell id="1" parent="0" />
        <mxCell id="Hgcuz3-H3vMZSUiwUz42-9" value="" style="rounded=0;whiteSpace=wrap;html=1;" parent="1" vertex="1">
          <mxGeometry x="40" y="150" width="720" height="90" as="geometry" />
        </mxCell>
        <mxCell id="0QURrS45yJ3HblQKmMUU-26" value="" style="verticalLabelPosition=bottom;verticalAlign=top;html=1;shape=mxgraph.basic.patternFillRect;fillStyle=diag;step=5;fillStrokeWidth=0.2;fillStrokeColor=#dddddd;rounded=1;fillColor=#fff2cc;strokeColor=#d6b656;align=center;fontFamily=Georgia;" parent="1" vertex="1">
          <mxGeometry x="40" y="150" width="80" height="23" as="geometry" />
        </mxCell>
        <mxCell id="0QURrS45yJ3HblQKmMUU-27" value="" style="verticalLabelPosition=bottom;verticalAlign=top;html=1;shape=mxgraph.basic.patternFillRect;fillStyle=diag;step=5;fillStrokeWidth=0.2;fillStrokeColor=#dddddd;rounded=1;fillColor=#fff2cc;strokeColor=#d6b656;" parent="1" vertex="1">
          <mxGeometry x="120" y="150" width="120" height="23" as="geometry" />
        </mxCell>
        <mxCell id="0QURrS45yJ3HblQKmMUU-28" value="" style="verticalLabelPosition=bottom;verticalAlign=top;html=1;shape=mxgraph.basic.patternFillRect;fillStyle=diag;step=5;fillStrokeWidth=0.2;fillStrokeColor=#dddddd;rounded=1;fillColor=#fff2cc;strokeColor=#d6b656;" parent="1" vertex="1">
          <mxGeometry x="237" y="150" width="163" height="23" as="geometry" />
        </mxCell>
        <mxCell id="Hgcuz3-H3vMZSUiwUz42-1" value="" style="verticalLabelPosition=bottom;verticalAlign=top;html=1;shape=mxgraph.basic.patternFillRect;fillStyle=diag;step=5;fillStrokeWidth=0.2;fillStrokeColor=#dddddd;rounded=1;fillColor=#fff2cc;strokeColor=#d6b656;" parent="1" vertex="1">
          <mxGeometry x="396.19" y="150" width="83.81" height="23" as="geometry" />
        </mxCell>
        <mxCell id="Hgcuz3-H3vMZSUiwUz42-3" value="" style="verticalLabelPosition=bottom;verticalAlign=top;html=1;shape=mxgraph.basic.patternFillRect;fillStyle=diag;step=5;fillStrokeWidth=0.2;fillStrokeColor=#dddddd;rounded=1;fillColor=#fff2cc;strokeColor=#d6b656;" parent="1" vertex="1">
          <mxGeometry x="478" y="150" width="82" height="23" as="geometry" />
        </mxCell>
        <mxCell id="CPTn1om1HVJnCBgDZQZU-1" value="" style="shape=curlyBracket;whiteSpace=wrap;html=1;rounded=1;rotation=90;" parent="1" vertex="1">
          <mxGeometry x="392.19" y="-242.94" width="20" height="718.13" as="geometry" />
        </mxCell>
        <mxCell id="CPTn1om1HVJnCBgDZQZU-2" value="&lt;b&gt;消息内容&lt;/b&gt;" style="text;html=1;align=center;verticalAlign=middle;resizable=0;points=[];autosize=1;strokeColor=none;" parent="1" vertex="1">
          <mxGeometry x="372.19" y="80" width="60" height="20" as="geometry" />
        </mxCell>
        <mxCell id="CPTn1om1HVJnCBgDZQZU-6" value="&lt;font&gt;Length&lt;/font&gt;" style="text;html=1;strokeColor=none;fillColor=none;align=center;verticalAlign=middle;whiteSpace=wrap;rounded=0;fontFamily=Helvetica;" parent="1" vertex="1">
          <mxGeometry x="60" y="150" width="40" height="20" as="geometry" />
        </mxCell>
        <mxCell id="CPTn1om1HVJnCBgDZQZU-7" value="&lt;span&gt;CommandID&lt;/span&gt;" style="text;html=1;strokeColor=none;fillColor=none;align=center;verticalAlign=middle;whiteSpace=wrap;rounded=0;" parent="1" vertex="1">
          <mxGeometry x="160" y="150" width="40" height="20" as="geometry" />
        </mxCell>
        <mxCell id="CPTn1om1HVJnCBgDZQZU-14" value="&lt;span lang=&quot;EN-US&quot;&gt;&lt;font style=&quot;font-size: 12px&quot;&gt;SequenceID&lt;/font&gt;&lt;/span&gt;" style="text;html=1;strokeColor=none;fillColor=none;align=center;verticalAlign=middle;whiteSpace=wrap;rounded=0;" parent="1" vertex="1">
          <mxGeometry x="281" y="150" width="60" height="20" as="geometry" />
        </mxCell>
        <mxCell id="CPTn1om1HVJnCBgDZQZU-15" value="Version" style="text;html=1;strokeColor=none;fillColor=none;align=center;verticalAlign=middle;whiteSpace=wrap;rounded=0;" parent="1" vertex="1">
          <mxGeometry x="418.1" y="150" width="40" height="20" as="geometry" />
        </mxCell>
        <mxCell id="CPTn1om1HVJnCBgDZQZU-17" value="&lt;span&gt;Proto&lt;/span&gt;" style="text;html=1;strokeColor=none;fillColor=none;align=center;verticalAlign=middle;whiteSpace=wrap;rounded=0;" parent="1" vertex="1">
          <mxGeometry x="501.5" y="150" width="33" height="20" as="geometry" />
        </mxCell>
        <mxCell id="CPTn1om1HVJnCBgDZQZU-24" value="0" style="text;html=1;strokeColor=none;fillColor=none;align=center;verticalAlign=middle;whiteSpace=wrap;rounded=0;" parent="1" vertex="1">
          <mxGeometry x="37" y="133" width="10" height="10" as="geometry" />
        </mxCell>
        <mxCell id="CPTn1om1HVJnCBgDZQZU-25" value="2" style="text;html=1;strokeColor=none;fillColor=none;align=center;verticalAlign=middle;whiteSpace=wrap;rounded=0;" parent="1" vertex="1">
          <mxGeometry x="116" y="133" width="10" height="10" as="geometry" />
        </mxCell>
        <mxCell id="CPTn1om1HVJnCBgDZQZU-26" value="5" style="text;html=1;strokeColor=none;fillColor=none;align=center;verticalAlign=middle;whiteSpace=wrap;rounded=0;" parent="1" vertex="1">
          <mxGeometry x="233" y="133" width="10" height="10" as="geometry" />
        </mxCell>
        <mxCell id="CPTn1om1HVJnCBgDZQZU-27" value="9" style="text;html=1;strokeColor=none;fillColor=none;align=center;verticalAlign=middle;whiteSpace=wrap;rounded=0;" parent="1" vertex="1">
          <mxGeometry x="392.19" y="134" width="10" height="10" as="geometry" />
        </mxCell>
        <mxCell id="CPTn1om1HVJnCBgDZQZU-28" value="10" style="text;html=1;strokeColor=none;fillColor=none;align=center;verticalAlign=middle;whiteSpace=wrap;rounded=0;" parent="1" vertex="1">
          <mxGeometry x="439.19" y="133" width="10" height="10" as="geometry" />
        </mxCell>
        <mxCell id="CPTn1om1HVJnCBgDZQZU-29" value="11" style="text;html=1;strokeColor=none;fillColor=none;align=center;verticalAlign=middle;whiteSpace=wrap;rounded=0;" parent="1" vertex="1">
          <mxGeometry x="513" y="134" width="10" height="10" as="geometry" />
        </mxCell>
        <mxCell id="CPTn1om1HVJnCBgDZQZU-34" value="" style="endArrow=classic;html=1;exitX=1;exitY=1;exitDx=0;exitDy=0;exitPerimeter=0;entryX=1;entryY=0.25;entryDx=0;entryDy=0;" parent="1" source="Hgcuz3-H3vMZSUiwUz42-3" target="Hgcuz3-H3vMZSUiwUz42-9" edge="1">
          <mxGeometry width="50" height="50" relative="1" as="geometry">
            <mxPoint x="590" y="190" as="sourcePoint" />
            <mxPoint x="640" y="140" as="targetPoint" />
          </mxGeometry>
        </mxCell>
        <mxCell id="CPTn1om1HVJnCBgDZQZU-35" value="消息体" style="text;html=1;strokeColor=none;fillColor=none;align=center;verticalAlign=middle;whiteSpace=wrap;rounded=0;" parent="1" vertex="1">
          <mxGeometry x="650" y="153" width="40" height="20" as="geometry" />
        </mxCell>
        <mxCell id="CPTn1om1HVJnCBgDZQZU-38" value="" style="endArrow=classic;html=1;exitX=0;exitY=0.75;exitDx=0;exitDy=0;" parent="1" source="Hgcuz3-H3vMZSUiwUz42-9" edge="1">
          <mxGeometry relative="1" as="geometry">
            <mxPoint x="534.5" y="210" as="sourcePoint" />
            <mxPoint x="762" y="218" as="targetPoint" />
          </mxGeometry>
        </mxCell>
        <mxCell id="CPTn1om1HVJnCBgDZQZU-39" value="消息体" style="edgeLabel;resizable=0;html=1;align=center;verticalAlign=middle;" parent="CPTn1om1HVJnCBgDZQZU-38" connectable="0" vertex="1">
          <mxGeometry relative="1" as="geometry" />
        </mxCell>
        <mxCell id="CPTn1om1HVJnCBgDZQZU-42" value="" style="shape=curlyBracket;whiteSpace=wrap;html=1;rounded=1;flipH=1;rotation=90;fontColor=#CCFF99;strokeColor=#808080;" parent="1" vertex="1">
          <mxGeometry x="290" y="-75" width="20" height="520" as="geometry" />
        </mxCell>
        <mxCell id="CPTn1om1HVJnCBgDZQZU-43" value="消息头" style="text;html=1;strokeColor=none;fillColor=none;align=center;verticalAlign=middle;whiteSpace=wrap;rounded=0;" parent="1" vertex="1">
          <mxGeometry x="281" y="188" width="40" height="20" as="geometry" />
        </mxCell>
        <mxCell id="CPTn1om1HVJnCBgDZQZU-65" value="" style="ellipse;shape=doubleEllipse;whiteSpace=wrap;html=1;aspect=fixed;fontFamily=Helvetica;fontColor=#CCFF99;strokeColor=#000000;strokeWidth=2;fillColor=none;" parent="1" vertex="1">
          <mxGeometry x="325" y="445" width="150" height="150" as="geometry" />
        </mxCell>
        <mxCell id="CPTn1om1HVJnCBgDZQZU-67" value="" style="line;strokeWidth=2;direction=south;html=1;perimeter=backbonePerimeter;points=[];outlineConnect=0;fontFamily=Helvetica;fontColor=#CCFF99;fillColor=none;" parent="1" vertex="1">
          <mxGeometry x="395" y="450" width="10" height="140" as="geometry" />
        </mxCell>
        <mxCell id="CPTn1om1HVJnCBgDZQZU-68" value="" style="line;strokeWidth=2;direction=south;html=1;perimeter=backbonePerimeter;points=[];outlineConnect=0;fontFamily=Helvetica;fontColor=#CCFF99;fillColor=none;rotation=90;" parent="1" vertex="1">
          <mxGeometry x="394.07" y="449.38" width="10" height="141.25" as="geometry" />
        </mxCell>
        <mxCell id="CPTn1om1HVJnCBgDZQZU-69" value="" style="line;strokeWidth=2;direction=south;html=1;perimeter=backbonePerimeter;points=[];outlineConnect=0;fontFamily=Helvetica;fontColor=#CCFF99;fillColor=none;rotation=-45;" parent="1" vertex="1">
          <mxGeometry x="394.07" y="450.01000000000005" width="10" height="140.62" as="geometry" />
        </mxCell>
        <mxCell id="CPTn1om1HVJnCBgDZQZU-70" value="" style="line;strokeWidth=2;direction=south;html=1;perimeter=backbonePerimeter;points=[];outlineConnect=0;fontFamily=Helvetica;fontColor=#CCFF99;fillColor=none;rotation=46;" parent="1" vertex="1">
          <mxGeometry x="396.19" y="449.38000000000005" width="10" height="140.62" as="geometry" />
        </mxCell>
      </root>
    </mxGraphModel>
  </diagram>
</mxfile>
